<svg width="173" height="40" viewBox="0 0 173 40" fill="none" xmlns="http://www.w3.org/2000/svg">
<g clip-path="url(#clip0_91_12)">
<path d="M136.997 0.0684646C138.384 -0.00653221 139.813 0.0619387 141.204 0.0698197C143.77 0.0935475 146.336 0.0947332 148.902 0.0733782C144.727 5.62162 140.332 11.012 136.03 16.4624C134.756 18.0714 133.493 19.6886 132.239 21.3139C131.488 22.2885 130.672 23.2545 130.04 24.3095C131.452 24.1977 132.928 24.2943 134.345 24.3019C136.863 24.3177 139.381 24.3169 141.899 24.2994C142.198 21.308 142.345 18.2996 142.593 15.3037C145.593 15.1979 148.628 15.2984 151.631 15.3004C151.469 16.7209 151.413 18.17 151.317 19.597C151.213 21.1631 151.067 22.7511 151.067 24.3206L155.752 24.335L155.373 31.4253L155.267 33.2261L150.459 33.2253L150.021 40.0656L140.733 40.0504C140.719 37.7658 141.017 35.4616 141.086 33.1727C138.735 33.2405 136.373 33.1854 134.02 33.1854L117.598 33.2032C117.682 30.2983 117.83 27.4365 118.035 24.5375L132.173 6.43226C133.805 4.33167 135.331 2.14134 136.997 0.0684646Z" fill="#0D95D3"/>
<path d="M89.876 0.095502L107.654 0.0861816C110.723 0.0768599 113.85 -0.0742355 116.914 0.0605893C116.797 2.79793 116.807 5.5812 116.558 8.30718C110.591 8.48557 104.615 8.31388 98.6468 8.40989C98.4094 11.1976 98.2819 13.999 98.0082 16.7828L114.73 16.7964C114.72 17.3345 114.755 17.9252 114.654 18.4523C114.637 19.1336 114.631 19.8166 114.583 20.4971L114.578 20.9225L114.546 21.231L114.521 22.4512L114.479 23.1063L114.457 23.2707C114.452 23.6283 114.513 24.141 114.375 24.4647C112.555 24.7105 110.558 24.5647 108.719 24.5681L97.634 24.5723C97.4329 26.5638 97.4397 28.6213 97.1423 30.595C97.1736 31.5517 97.0308 32.5779 96.9658 33.5372L96.4741 40.0285C93.309 40.1607 90.1091 40.0683 86.9414 40.0344C87.2421 37.3574 87.3207 34.6151 87.5057 31.9229C87.5766 30.8899 87.6028 29.8297 87.7608 28.8078C87.7355 26.6087 88.1004 23.8774 88.2592 21.6326C88.356 20.2366 88.4704 18.8424 88.6021 17.4498L89.4333 6.21871C89.5795 4.18117 89.6555 2.12626 89.876 0.095502Z" fill="url(#paint0_linear_91_12)"/>
<path d="M88.2592 21.6326C88.3217 21.5156 88.3724 21.3241 88.5075 21.2953C89.0135 21.1877 89.865 21.3623 90.3904 21.4004C92.9626 21.586 95.5314 21.9021 98.1011 22.0665C99.44 22.291 100.809 22.3902 102.157 22.552C103.087 22.6639 104.035 22.8537 104.969 22.891C105.859 23.0054 106.752 23.1376 107.645 23.2274C108.289 23.319 108.936 23.4249 109.584 23.4859C110.474 23.6088 113.712 23.9189 114.287 24.2842L114.375 24.4647C112.555 24.7104 110.558 24.5647 108.719 24.5681L97.634 24.5723C97.4329 26.5637 97.4397 28.6213 97.1423 30.5949C97.1736 31.5517 97.0308 32.5779 96.9658 33.5372L96.4741 40.0284C93.309 40.1606 90.1091 40.0682 86.9414 40.0343C87.2421 37.3573 87.3207 34.6151 87.5057 31.9228C87.5766 30.8898 87.6028 29.8297 87.7608 28.8077C87.7355 26.6086 88.1004 23.8774 88.2592 21.6326Z" fill="#1163A0"/>
<path d="M87.7608 28.8076C87.7929 29.2534 87.8622 29.7203 87.8613 30.1643C87.8579 31.5406 87.3832 33.4862 88.2634 34.676L88.576 34.6896L88.7474 35.0319L88.984 34.7718L89.098 34.776C89.098 34.9641 89.0575 35.1124 89.0042 35.2921C89.2264 35.3836 89.3252 35.3862 89.5601 35.3387C89.7079 35.176 89.6386 35.2845 89.7062 35.1048C89.7653 34.9463 89.8312 34.9006 89.9596 34.7989L90.1007 34.8057C90.2739 35.1412 90.4225 35.476 90.6903 35.7472C90.893 35.8014 90.9437 35.7963 91.1439 35.6963C91.2673 35.6344 91.3889 35.5311 91.5012 35.448C91.6237 35.4438 91.7276 35.4014 91.8248 35.4887C92.0917 35.7285 92.2362 36.1726 92.5504 36.3387C92.6306 36.2776 92.6965 36.1887 92.7911 36.1548C93.3208 35.9633 94.5144 36.5649 95.3676 36.1963C95.5675 36.2946 95.7666 36.3943 95.9648 36.4954C96.2832 36.1471 96.1962 35.4819 96.3626 35.0429C96.5231 34.6192 96.2452 34.0862 96.3677 33.643C96.5122 33.7023 96.578 33.7523 96.6946 33.8523C96.7537 32.582 96.8534 31.3126 96.8653 30.0423L96.8585 30.0508L96.8974 29.9415L96.9582 29.9643C96.9869 30.0949 96.9877 30.2567 97.0182 30.377C97.0274 30.4169 97.1178 30.5567 97.1423 30.5948C97.1736 31.5516 97.0308 32.5778 96.9658 33.5371L96.4741 40.0283C93.309 40.1605 90.1091 40.0682 86.9414 40.0343C87.2421 37.3573 87.3207 34.615 87.5057 31.9227C87.5766 30.8897 87.6028 29.8296 87.7608 28.8076Z" fill="#0D95D3"/>
<path d="M88.6027 17.4499C88.732 17.3804 88.8621 17.2609 89.0074 17.3041C89.1569 17.3482 89.2616 17.4109 89.3976 17.4821C89.9932 17.7956 90.7956 18.0397 91.4714 18.0592C91.7738 18.0685 92.0754 18.0227 92.3778 18.06C92.7698 18.1083 93.2073 18.2532 93.6001 18.232C93.927 18.2142 94.2337 18.0244 94.5657 18.0371C95.0995 18.0566 95.6334 18.2676 96.1732 18.3041C97.4817 18.393 98.8391 18.3159 100.134 18.5413C100.484 18.6024 100.779 18.5337 101.121 18.4676C102.01 18.2956 101.964 18.7778 102.346 18.7803C102.539 18.782 102.753 18.5803 102.934 18.5583C103.298 18.5134 103.92 18.7125 104.333 18.7235C105.537 18.7557 106.749 18.649 107.952 18.6922C108.51 18.7125 109.35 19.1795 109.839 18.8566C109.843 18.6964 109.825 18.7151 109.732 18.5981C109.977 18.4736 110.907 18.4278 111.166 18.5473C111.215 18.5693 111.258 18.6032 111.305 18.632L111.187 18.6413C110.939 18.6625 110.225 18.6879 110.08 18.8574C111.359 19.4455 112.899 19.3193 114.287 19.3693C114.469 19.054 114.416 18.7829 114.654 18.4524C114.638 19.1337 114.631 19.8167 114.583 20.4972L114.579 20.9226L114.547 21.2311L114.521 22.4513L114.479 23.1064L114.457 23.2708C114.452 23.6284 114.514 24.1411 114.375 24.4648L114.287 24.2843C113.713 23.9191 110.474 23.6089 109.585 23.4861C108.936 23.425 108.29 23.3191 107.645 23.2276C106.753 23.1378 105.86 23.0056 104.969 22.8912C104.036 22.8539 103.087 22.6641 102.158 22.5522C100.81 22.3903 99.4406 22.2912 98.1017 22.0666C95.532 21.9022 92.9632 21.5861 90.391 21.4005C89.8656 21.3624 89.0141 21.1878 88.5081 21.2955C88.373 21.3243 88.3223 21.5158 88.2598 21.6327C88.3566 20.2367 88.471 18.8425 88.6027 17.4499Z" fill="url(#paint1_linear_91_12)"/>
<path d="M101.983 21.5623C102.397 21.8123 106.732 21.692 107.518 21.7199C109.202 21.7801 110.881 21.9708 112.565 21.9936C113.139 22.0013 113.696 21.9979 114.26 21.8903C114.455 21.7004 114.472 21.4894 114.546 21.231L114.521 22.4512L114.479 23.1063L114.457 23.2707C114.452 23.6283 114.513 24.141 114.375 24.4647L114.287 24.2842C113.712 23.919 110.474 23.6088 109.584 23.486C108.936 23.4249 108.289 23.319 107.645 23.2275C106.752 23.1377 105.859 23.0055 104.969 22.8911C104.035 22.8538 103.087 22.664 102.157 22.5521C100.809 22.3902 99.44 22.2911 98.1011 22.0665C97.9457 21.9699 97.6703 21.9182 97.585 21.764L98.2472 21.6081C99.4645 21.5479 100.788 21.7623 101.983 21.5623Z" fill="#6F8CA9"/>
<path d="M104.969 22.8909C104.506 22.6927 103.987 22.6418 103.511 22.4638C104.033 22.2554 104.857 22.3283 105.412 22.3283C107.034 22.3283 108.639 22.4011 110.258 22.5011C111.35 22.5689 112.471 22.6927 113.564 22.6588C113.895 22.6486 114.239 22.6452 114.521 22.4511L114.479 23.1062L114.457 23.2706C114.452 23.6282 114.513 24.1409 114.375 24.4646L114.287 24.2841C113.712 23.9189 110.474 23.6087 109.584 23.4858C108.936 23.4248 108.289 23.3189 107.645 23.2274C106.752 23.1375 105.859 23.0053 104.969 22.8909Z" fill="#88A2BD"/>
<path d="M109.585 23.486C109.383 23.3487 109.23 23.3063 108.989 23.2775C108.829 23.258 108.906 23.2987 108.788 23.1572C109.203 22.7462 113.503 23.5631 114.457 23.2707C114.452 23.6284 114.514 24.141 114.375 24.4648L114.287 24.2843C113.713 23.919 110.474 23.6089 109.585 23.486Z" fill="#9CB6CA"/>
<path d="M100.421 21.4028L100.392 21.3062C100.099 21.252 99.8054 21.2012 99.5108 21.1537L99.5514 21.0817C100.209 21.041 100.818 21.3452 101.485 21.3266L101.353 21.0825L101.536 21.0029L101.355 21.0469C101.676 20.9707 101.613 21.1393 101.874 21.2003C102 21.2308 102.23 21.2012 102.365 21.2003C104.168 21.1935 106.011 21.0562 107.809 21.1571C109.186 21.2342 110.495 21.5613 111.884 21.4969L111.748 21.4401C112.303 21.424 113.917 21.53 114.316 21.2198L114.579 20.9224L114.547 21.2308C114.473 21.4893 114.456 21.7003 114.261 21.8901C113.696 21.9977 113.14 22.0011 112.566 21.9935C110.882 21.9706 109.202 21.7799 107.519 21.7198C106.732 21.6918 102.398 21.8121 101.983 21.5622C100.789 21.7622 99.4652 21.5478 98.248 21.6079C97.5612 21.5876 96.8905 21.5071 96.2096 21.4198L96.1514 21.4495L96.1522 21.3656L96.3136 21.4215L96.164 21.3834C96.2874 21.2791 96.6835 21.3334 96.8711 21.2851L96.8204 21.1088L96.8956 21.0851L97.1532 21.2461C98.1838 20.9122 99.3884 21.1715 100.421 21.4028Z" fill="#1163A0"/>
<path d="M114.583 20.4971L114.579 20.9225L114.315 21.2199C113.498 21.092 111.636 21.4013 111.042 20.8335C111.252 20.764 111.15 20.7699 111.366 20.8055C112.089 20.9267 112.898 20.9055 113.623 20.8047C113.957 20.7581 114.375 20.7691 114.583 20.4971Z" fill="#1163A0"/>
<path d="M59.9213 15.5801C60.1013 15.7268 60.191 15.7542 60.228 15.9912C60.2446 16.0967 60.2344 16.2311 60.2341 16.3362C60.3725 16.5074 60.3736 16.5455 60.594 16.5786C61.8841 16.7701 63.2694 16.5464 64.5291 16.9108C65.0672 17.0659 65.5744 16.5633 66.0882 16.4642C67.0671 16.2752 67.0963 16.8845 68.4693 16.1252C68.5993 16.0533 68.7016 15.9661 68.8155 15.8721C68.9677 15.7466 69.0948 15.6975 69.2859 15.6507L69.2107 16.7633L86.0063 16.7608C85.9041 18.115 85.8188 19.4734 85.6879 20.825C85.6668 21.2394 85.6744 21.6758 85.5705 22.0784C85.5358 22.9122 85.4691 23.7402 85.3973 24.5723C82.805 24.6181 80.1886 24.6579 77.5976 24.5766C74.6547 24.6486 71.6419 24.4249 68.7113 24.6283L68.3365 29.5958C68.2674 30.5466 68.2544 31.5441 68.0912 32.4813C68.0846 33.6516 67.9952 36.0498 67.7592 37.143C67.7037 38.0994 67.635 39.055 67.553 40.0098C65.848 40.0132 53.6247 40.1708 53.0455 39.9073C52.656 39.081 52.4099 38.1556 52.1336 37.2853C51.7001 35.9396 51.2796 34.5897 50.8721 33.2355C45.9737 33.1355 41.0562 33.2219 36.1562 33.2219C37.6926 30.3678 39.2605 27.5103 40.9214 24.7274C43.4619 24.6571 46.0167 24.7299 48.5594 24.7223C48.2507 23.4995 47.8717 22.2936 47.5071 21.086L47.587 20.9708C47.9993 20.6996 49.8488 20.7699 50.4217 20.7513C51.4661 20.7005 56.3745 20.3454 57.0878 20.6988L57.3863 21.1292C57.9436 22.6749 58.4719 24.2401 59.0878 25.7638C59.1823 24.5412 59.2873 23.3198 59.4028 22.0995C59.3389 21.447 59.4951 20.6691 59.5514 20.0107L59.9213 15.5801Z" fill="url(#paint2_linear_91_12)"/>
<path d="M59.9213 15.5801C60.1013 15.7268 60.191 15.7542 60.228 15.9912C60.2445 16.0967 60.2344 16.2311 60.2341 16.3362C60.3724 16.5074 60.3736 16.5455 60.594 16.5786C61.8841 16.7701 63.2693 16.5464 64.5291 16.9108C65.0672 17.0659 65.5743 16.5633 66.0882 16.4642C67.0671 16.2752 67.0963 16.8845 68.4693 16.1252C68.5993 16.0533 68.7016 15.9661 68.8155 15.8721C68.9677 15.7466 69.0947 15.6975 69.2859 15.6507L69.2106 16.7633L86.0063 16.7608C85.9041 18.115 85.8188 19.4734 85.6879 20.825C85.6668 21.2394 85.6744 21.6758 85.5705 22.0784C85.5552 21.7809 85.5966 21.3767 85.3948 21.1572C83.6194 20.8411 81.4985 20.9115 79.6832 20.8352C74.1095 20.6013 68.5616 20.603 62.9872 20.525C61.8686 20.5877 60.7459 20.5784 59.6258 20.586C59.5979 20.9216 59.6153 21.8648 59.4028 22.0995C59.3389 21.447 59.4951 20.6691 59.5514 20.0107L59.9213 15.5801Z" fill="url(#paint3_linear_91_12)"/>
<path d="M62.9873 20.5249C63.8872 19.8478 70.4101 20.1182 71.8753 19.93C71.9415 19.9216 72.0083 19.919 72.075 19.9148L72.118 20.0148C71.7542 20.3012 71.2605 20.1885 70.8314 20.1461C71.6266 20.5038 73.1762 20.0004 73.3706 20.1385L73.354 20.2461C73.5252 20.3741 73.8747 20.2885 74.0897 20.2563C74.4962 20.1953 75.0122 19.986 75.3892 20.147L75.3722 20.2394L75.004 20.3673C77.4722 20.408 79.9392 20.5775 82.4058 20.6741C83.0838 20.7012 85.1423 20.6724 85.688 20.8249C85.6669 21.2393 85.6745 21.6757 85.5706 22.0783C85.5554 21.7808 85.5967 21.3766 85.3949 21.1571C83.6195 20.841 81.4986 20.9114 79.6833 20.8351C74.1097 20.6012 68.5617 20.6029 62.9873 20.5249Z" fill="#0D95D3"/>
<path d="M53.0459 39.9071C53.3095 39.5063 53.8522 39.7444 54.2466 39.78C55.1909 39.8656 64.3017 39.8707 64.7911 39.7436C65.2414 39.6275 65.7878 39.2631 66.2065 39.0453C66.361 38.6258 66.5736 38.247 66.8715 37.9131C67.1022 37.836 67.1219 37.8428 67.3571 37.9106C67.3578 37.8208 67.3557 37.7589 67.3636 37.6733C67.3827 37.4699 67.4803 37.3513 67.6365 37.2327C67.6769 37.2021 67.7185 37.1725 67.7595 37.1428C67.704 38.0993 67.6353 39.0549 67.5533 40.0097C65.8483 40.013 53.625 40.1707 53.0459 39.9071Z" fill="#0D95D3"/>
<path d="M68.0914 32.4813C67.9457 31.4602 68.0503 30.206 67.9551 29.1145C67.8652 28.0824 67.9537 25.3876 68.6258 24.5834C69.0752 24.3588 76.9081 24.3876 77.5978 24.5766C74.6548 24.6486 71.6421 24.4249 68.7115 24.6283L68.3367 29.5959C68.2676 30.5467 68.2546 31.5441 68.0914 32.4813Z" fill="#1163A0"/>
<path d="M41.4215 0.0921759C44.2344 0.0882777 47.0779 -0.00629428 49.8872 0.0976843C50.3797 1.69643 51.0396 3.24458 51.4949 4.85291C52.2461 6.51224 52.7812 8.32335 53.4192 10.0335C54.3989 12.6599 55.5249 15.3533 56.3069 18.0421C56.7214 19.0149 57.1203 20.1056 57.3867 21.1292L57.0882 20.6988C56.3749 20.3454 51.4665 20.7005 50.4222 20.7513C49.8492 20.7699 47.9997 20.6996 47.5874 20.9708L47.5075 21.086C47.394 20.751 47.2826 20.4151 47.1733 20.0784C46.9666 19.3056 46.6655 18.5446 46.4398 17.7735C45.6873 15.5421 45.0663 13.267 44.272 11.0497C43.2106 12.8378 42.2577 14.7032 41.281 16.5396L40.6392 17.8124L40.4366 18.1378L40.1401 18.7768L39.7988 19.4259L39.5297 19.9623L39.3768 20.2479C39.1777 20.653 38.9955 21.0886 38.753 21.4682C38.3477 21.2411 37.3105 21.5402 36.8003 21.547C35.4079 21.8046 33.9714 21.9317 32.5655 22.1021C32.6968 22.0156 32.7921 21.9385 32.8947 21.819C32.2316 21.3301 29.4979 22.2411 28.7043 21.814L28.6562 21.5936C28.7618 21.3843 28.8678 21.2072 29.006 21.0182L29.4157 20.353L29.6695 19.9191C29.8352 19.6039 30.0025 19.3064 30.2092 19.0175L30.2849 18.8937C30.7816 17.9057 31.427 16.9582 32.0038 16.0131L36.6253 8.24183C37.4444 6.83875 38.2376 5.18069 39.2234 3.89506C39.9026 2.59707 40.7498 1.39483 41.4215 0.0921759Z" fill="url(#paint4_linear_91_12)"/>
<path d="M41.4217 0.0921759C44.2346 0.0882777 47.0781 -0.00629428 49.8874 0.0976843C50.3799 1.69643 51.0398 3.24458 51.4951 4.85291C50.6396 4.30827 50.956 2.78011 50.0427 2.31284C49.8641 2.2214 49.7376 2.23192 49.5537 2.28064C49.3985 2.32174 49.2668 2.34919 49.1047 2.36004C49.0405 2.26505 48.9753 2.17403 48.9069 2.08192C48.5784 2.1948 48.2351 2.34276 47.8887 2.37919C47.764 2.31411 47.5908 2.20564 47.4475 2.18692C47.292 2.16658 47.1101 2.22115 46.9554 2.24937C46.1006 2.40581 45.4699 2.33132 44.6244 2.32022C44.4506 2.31793 44.3543 2.30581 44.1808 2.34098C44.1274 2.62927 44.0817 2.76613 43.882 2.98315C43.6324 3.03705 43.5015 2.92324 43.2736 2.81816L43.2376 2.94993C43.3179 3.1678 43.3738 3.38543 43.4289 3.6105C43.3013 3.99226 42.8881 3.72541 42.6191 4.02497C42.7283 4.22742 42.8301 4.43699 42.9147 4.65105C43.0215 4.92155 43.0289 5.08027 42.9128 5.34466C42.8439 5.35898 42.7755 5.37559 42.7064 5.38881C42.4979 5.42873 42.398 5.43118 42.2403 5.57991C42.1398 5.67465 42.1024 5.70787 41.9692 5.77278C41.7652 5.87218 41.9146 5.77896 41.7086 5.92557L41.7872 6.16835L41.6917 6.23183C41.4293 6.21318 41.324 6.12963 41.1287 5.97006C41.1059 5.95133 41.0833 5.93201 41.0606 5.91303L40.5131 5.9954L40.6151 5.71134L40.4416 5.44983C40.4917 5.29559 40.538 5.14029 40.5808 4.98391C40.3402 4.77163 40.1462 4.84884 39.8551 4.74613C39.8033 4.39903 40.0138 4.0209 40.0757 3.67905C40.1136 3.4705 40.107 3.37068 39.9956 3.1934C39.8606 3.4272 39.6167 3.79024 39.3427 3.86735C39.3035 3.87846 39.2633 3.88583 39.2236 3.89506C39.9028 2.59707 40.75 1.39483 41.4217 0.0921759Z" fill="#033070"/>
<path d="M29.6695 19.9192C29.8351 19.604 30.0025 19.3065 30.2092 19.0176L30.244 19.3557C30.5971 19.5421 31.8231 19.3421 32.2663 19.3243C33.213 19.2871 34.1734 19.2472 35.1202 19.2921C36.642 19.3642 38.2853 19.5989 39.7988 19.426L39.5297 19.9625L39.3768 20.248C39.1777 20.6531 38.9955 21.0887 38.753 21.4683C38.3477 21.2412 37.3105 21.5404 36.8003 21.5471C35.4079 21.8048 33.9714 21.9319 32.5655 22.1022C32.6968 22.0158 32.7921 21.9386 32.8947 21.8192C32.2316 21.3302 29.4979 22.2412 28.7043 21.8141L28.6562 21.5937C28.7618 21.3844 28.8678 21.2073 29.006 21.0183L29.4157 20.3531L29.6695 19.9192Z" fill="#9CB6CA"/>
<path d="M28.6562 21.5935C28.7618 21.3842 28.8678 21.2071 29.006 21.0181C29.1044 21.1588 29.0827 21.1978 29.2623 21.2266C29.9167 21.3325 30.7813 21.0571 31.4646 21.0173C32.3839 20.9622 36.5185 21.0029 37.353 21.2037L37.4112 21.3012C37.2157 21.4291 37.0655 21.4622 36.8467 21.5274C36.8308 21.5325 36.8157 21.5402 36.8003 21.5469C35.4079 21.8045 33.9714 21.9317 32.5655 22.102C32.6968 22.0155 32.7921 21.9384 32.8947 21.8189C32.2316 21.33 29.4979 22.241 28.7043 21.8139L28.6562 21.5935Z" fill="#D1DEE5"/>
<path d="M29.6699 19.9192C29.8356 19.604 30.0029 19.3065 30.2096 19.0176L30.2444 19.3557C30.5975 19.5421 31.8236 19.3421 32.2667 19.3243C33.2135 19.2871 34.1738 19.2472 35.1206 19.2921C36.6425 19.3642 38.2857 19.5989 39.7992 19.426L39.5301 19.9625C38.6919 19.9667 37.8601 20.0523 37.0199 20.0286C35.6816 19.9904 34.3424 19.826 33.0024 19.8523C31.9385 19.8743 30.8742 20.1082 29.813 20.0955L29.6699 19.9192Z" fill="#88A2BD"/>
<path d="M32.0036 16.0132C32.1631 16.2253 32.1843 16.2117 32.1545 16.471C31.9801 16.7109 31.8141 16.9507 31.6551 17.2007L31.6719 17.3032L32.1914 17.3744L32.2422 17.4896L32.1073 17.6244L31.8694 17.5693C31.8392 17.6151 31.8114 17.6625 31.7789 17.7066C31.7546 17.7396 31.7258 17.7693 31.6993 17.7998C31.5219 17.8007 31.4538 17.7761 31.3061 17.6786C31.0864 17.9735 30.9071 18.2184 30.7919 18.5735C30.9453 18.6125 31.024 18.6167 31.1776 18.6099C31.0463 18.4413 31.0791 18.5328 31.0619 18.3413C31.394 18.1938 31.8004 18.3633 32.1681 18.2854C32.2009 18.2786 32.2331 18.2701 32.2656 18.2616L32.3795 18.1472C32.1853 18.1811 31.9564 18.2744 31.7815 18.1803C32.346 17.4659 34.1947 18.1574 34.6585 17.8549L34.5603 17.7829C34.5922 17.6151 34.6198 17.6286 34.743 17.5227L34.4849 17.3973C34.7343 17.1795 35.7792 17.4693 36.3388 17.3049C36.4753 17.2651 36.5286 17.2413 36.6726 17.2507C36.6506 17.4329 36.643 17.3397 36.7049 17.5278C37.4839 17.9184 39.0722 17.6735 39.9308 17.6507L40.0038 17.56L39.8833 17.2795C40.0506 17.2363 40.1074 17.2515 40.2722 17.2854L40.3364 17.4091L40.2592 17.6515L40.3662 17.6354C40.5911 17.3897 40.7018 17.1066 40.8353 16.8058C40.684 16.8388 40.5955 16.9007 40.4564 16.8219L40.4726 16.7795C40.7834 16.5702 40.902 16.5719 41.2808 16.5397L40.639 17.8125L40.4364 18.1379L40.1399 18.7769L39.7986 19.426C38.2851 19.5989 36.6418 19.3641 35.12 19.2921C34.1732 19.2472 33.2128 19.287 32.2661 19.3243C31.8229 19.3421 30.5969 19.5421 30.2438 19.3557L30.209 19.0175L30.2847 18.8938C30.7814 17.9057 31.4268 16.9583 32.0036 16.0132Z" fill="url(#paint5_linear_91_12)"/>
<path d="M35.837 18.7345C35.9981 18.7726 35.8997 18.7692 36.0294 18.7404C36.1915 18.7048 39.6769 18.7786 40.1399 18.7769L39.7986 19.426C38.2851 19.5989 36.6418 19.3641 35.12 19.2921C34.1732 19.2472 33.2128 19.287 32.2661 19.3243C31.8229 19.3421 30.5969 19.5421 30.2438 19.3557L30.209 19.0175L30.2847 18.8938L30.368 19.0701L30.8336 19.1345C31.0151 18.9997 31.1579 18.8896 31.3903 18.8599C31.907 18.793 32.5196 18.8803 33.0484 18.8735C33.9789 18.8625 34.9083 18.7921 35.837 18.7345Z" fill="#6F8CA9"/>
<path d="M35.7582 18.3515L35.6192 18.2904L35.6043 18.2032C36.1842 18.143 36.7426 17.9879 37.3274 17.9633C38.4097 17.9167 39.5813 18.0727 40.6386 17.8125L40.436 18.1379L40.1395 18.7769C39.6765 18.7786 36.1911 18.7048 36.029 18.7404C35.8993 18.7692 35.9977 18.7726 35.8366 18.7345C35.4885 18.5955 35.0682 18.5726 34.6963 18.5176C35.0501 18.4481 35.4 18.3921 35.7582 18.3515Z" fill="#0D95D3"/>
<path d="M31.1782 18.6098C31.0469 18.4411 31.0797 18.5326 31.0625 18.3411C31.3946 18.1937 31.801 18.3632 32.1687 18.2852C32.2014 18.2784 32.2337 18.2699 32.2662 18.2615C32.4985 18.2759 32.6834 18.2733 32.8855 18.4047C32.7418 18.5801 32.4851 18.5776 32.2646 18.6021C31.9123 18.6403 31.5314 18.6267 31.1782 18.6098Z" fill="#0D95D3"/>
<path d="M46.4395 17.7734C46.4652 17.8039 46.4917 17.8344 46.5168 17.865C46.8072 18.2226 46.9677 19.1641 47.4276 19.2657C48.1878 19.4344 49.0475 19.1971 49.8245 19.3564L49.8576 19.4505C49.2058 19.9233 48.0395 19.1869 47.3605 19.6251C47.5003 19.7649 47.781 19.8098 47.9747 19.803C48.0597 19.8005 48.0997 19.775 48.1819 19.7573C48.9953 19.5818 50.0403 19.7861 50.8939 19.7259L50.9303 19.6225L50.7108 19.3649C51.0695 19.4344 51.573 19.464 51.8833 19.6488L51.8123 19.7369C51.9589 19.792 52.0819 19.8157 52.235 19.8411L52.2205 19.9242C51.9775 19.9878 51.7727 20.0013 51.5221 19.9996L51.6447 19.9818L51.533 20.0301C52.9969 20.1437 54.4975 20.5276 55.9659 20.3818L56.2141 20.1318L56.3574 20.1454L56.3758 20.3182L56.7879 20.3343L56.783 20.1886C56.5207 20.0327 56.2543 19.9242 56.1196 19.642C56.3086 19.4445 56.4922 19.3793 56.474 19.0861C56.4521 18.731 56.2993 18.4014 56.3066 18.0421C56.721 19.0149 57.12 20.1055 57.3863 21.1292L57.0879 20.6987C56.3746 20.3454 51.4662 20.7004 50.4218 20.7513C49.8489 20.7699 47.9994 20.6996 47.5871 20.9708L47.5072 21.086C47.3937 20.751 47.2823 20.4151 47.173 20.0784C46.9663 19.3056 46.6652 18.5446 46.4395 17.7734Z" fill="#0D95D3"/>
<path d="M47.9346 4.64136C48.1004 4.82821 48.1322 5.01905 48.1893 5.25837C48.0971 5.19837 48.0251 5.12812 47.9448 5.0532L47.9346 4.64136Z" fill="#033070"/>
<path d="M61.0767 0.0941408L88.2463 0.0883789C88.0394 2.8358 87.8696 5.59145 87.6102 8.33413C83.641 8.48167 79.6387 8.45192 75.6664 8.4676C73.7482 8.47523 71.7757 8.38667 69.864 8.54497C69.7116 10.8992 69.5677 13.3093 69.2865 15.6508C69.0954 15.6976 68.9683 15.7467 68.8161 15.8722C68.7022 15.9662 68.5999 16.0534 68.4699 16.1253C67.0969 16.8846 67.0677 16.2753 66.0888 16.4643C65.575 16.5634 65.0678 17.066 64.5297 16.9109C63.2699 16.5465 61.8847 16.7702 60.5946 16.5787C60.3742 16.5456 60.373 16.5075 60.2347 16.3363C60.235 16.2312 60.2452 16.0968 60.2286 15.9913C60.1916 15.7543 60.1019 15.7269 59.9219 15.5802C60.1217 12.6753 60.4099 9.77763 60.6199 6.87351C60.7832 4.61539 60.8574 2.34752 61.0767 0.0941408Z" fill="url(#paint6_linear_91_12)"/>
<path d="M36.8001 21.5471C37.3103 21.5403 38.3475 21.2412 38.7528 21.4683L31.0623 36.0312C30.6744 36.7515 29.3566 39.5116 28.8906 39.9217C28.3324 40.1522 18.9859 39.9853 17.7666 39.9895C18.2866 38.7947 19.0238 37.6396 19.7033 36.5278C20.2505 35.3304 21.052 34.1449 21.7221 33.0026C23.7638 29.5222 26.011 26.1528 28.0025 22.6462C29.5016 22.3801 31.0512 22.264 32.5653 22.1022C33.9712 21.9318 35.4077 21.8047 36.8001 21.5471Z" fill="url(#paint7_linear_91_12)"/>
<path d="M17.7666 39.9893C18.2866 38.7944 19.0238 37.6394 19.7033 36.5276L19.7145 36.6598C19.7682 37.3487 19.5184 37.9691 19.5633 38.6351C19.9478 38.7716 20.3178 38.8555 20.6072 39.1563C20.9034 39.4639 21.3892 39.5537 21.8085 39.5546C21.9019 39.5546 21.9308 39.5427 22.0111 39.5215C21.8725 39.3605 21.7292 39.2639 21.5554 39.1461C21.5908 39.1571 21.6258 39.169 21.6615 39.1783C22.2304 39.3376 22.8258 38.9817 23.4278 39.2182C23.2876 39.3554 23.1173 39.419 22.9413 39.497C23.4035 39.8097 27.947 39.7859 28.7153 39.7181C28.7821 39.7851 28.8418 39.8402 28.8906 39.9215C28.3324 40.152 18.9859 39.9851 17.7666 39.9893Z" fill="#0D95D3"/>
</g>
<defs>
<linearGradient id="paint0_linear_91_12" x1="101.853" y1="-0.811915" x2="103.786" y2="20.2905" gradientUnits="userSpaceOnUse">
<stop stop-color="#00296A"/>
<stop offset="1" stop-color="#144776"/>
</linearGradient>
<linearGradient id="paint1_linear_91_12" x1="101.514" y1="17.6741" x2="101.36" y2="21.8508" gradientUnits="userSpaceOnUse">
<stop stop-color="#0F3E72"/>
<stop offset="1" stop-color="#617799"/>
</linearGradient>
<linearGradient id="paint2_linear_91_12" x1="61.6682" y1="19.4128" x2="59.9546" y2="40.1253" gradientUnits="userSpaceOnUse">
<stop stop-color="#074D86"/>
<stop offset="1" stop-color="#0083C6"/>
</linearGradient>
<linearGradient id="paint3_linear_91_12" x1="72.7437" y1="15.8742" x2="72.7201" y2="20.6239" gradientUnits="userSpaceOnUse">
<stop stop-color="#0F477B"/>
<stop offset="1" stop-color="#4E759A"/>
</linearGradient>
<linearGradient id="paint4_linear_91_12" x1="46.5818" y1="1.66266" x2="43.4951" y2="20.6516" gradientUnits="userSpaceOnUse">
<stop stop-color="#002669"/>
<stop offset="1" stop-color="#206996"/>
</linearGradient>
<linearGradient id="paint5_linear_91_12" x1="35.1698" y1="17.4711" x2="35.1055" y2="18.5636" gradientUnits="userSpaceOnUse">
<stop stop-color="#3E70A0"/>
<stop offset="1" stop-color="#5888AC"/>
</linearGradient>
<linearGradient id="paint6_linear_91_12" x1="73.5655" y1="-0.401992" x2="74.4836" y2="16.4127" gradientUnits="userSpaceOnUse">
<stop stop-color="#052A6A"/>
<stop offset="1" stop-color="#084D7E"/>
</linearGradient>
<linearGradient id="paint7_linear_91_12" x1="29.2339" y1="21.2093" x2="28.3916" y2="39.888" gradientUnits="userSpaceOnUse">
<stop stop-color="#015C9B"/>
<stop offset="1" stop-color="#008ACC"/>
</linearGradient>
<clipPath id="clip0_91_12">
<rect width="173" height="40" fill="white"/>
</clipPath>
</defs>
</svg>
